<?xml version="1.0" encoding="UTF-8" standalone="no"?>
<!DOCTYPE svg PUBLIC "-//W3C//DTD SVG 1.1//EN" "http://www.w3.org/Graphics/SVG/1.1/DTD/svg11.dtd">
<svg width="100%" height="100%" viewBox="0 0 378 158" version="1.1" xmlns="http://www.w3.org/2000/svg" xmlns:xlink="http://www.w3.org/1999/xlink" xml:space="preserve" xmlns:serif="http://www.serif.com/" style="fill-rule:evenodd;clip-rule:evenodd;stroke-linejoin:round;stroke-miterlimit:1.41421;">
    <g id="Artboard1" transform="matrix(1,0,0,1,-349.759,-160.887)">
        <rect x="349.759" y="160.887" width="377.128" height="157.56" style="fill:none;"/>
        <g transform="matrix(1,0,0,1,0.758942,0.886979)">
            <path d="M437.55,185.137L494.494,185.137L499.101,194.628L494.494,204.118L437.55,204.118L437.55,307.741L550.358,307.741C528.865,308.765 483.382,308.242 467.116,309.869C457.697,310.81 376.686,309.085 384.866,307.741L408.849,307.741C405.839,303.064 401.62,299.565 395.803,297.621C400.821,298.788 405.254,301.812 409.119,306.641C408.258,301.498 405.951,296.852 401.766,292.854C405.294,295.641 407.817,299.519 409.359,304.46C409.768,300.503 410.975,297.258 412.999,294.744C410.701,298.228 409.736,302.001 409.797,305.996C409.902,306.396 410,306.802 410.092,307.214C411.559,305.204 413.422,303.861 415.691,303.202C413.104,304.214 411.344,305.767 410.225,307.741L418.568,307.741L418.568,218.355L380.605,218.355L375.998,208.864L380.605,199.373L418.568,199.373L418.568,194.628L361.624,194.628L357.017,185.137L361.624,175.646L418.568,175.646L418.568,166.155L437.55,166.155L437.55,185.137ZM503.834,283.727C503.834,288.892 501.631,291.475 497.227,291.475C493.038,291.475 490.943,288.987 490.943,284.012L490.943,272.572L492.213,272.572L492.213,283.831C492.213,288.141 493.966,290.296 497.473,290.296C500.867,290.296 502.564,288.201 502.564,284.012L502.564,272.572L503.834,272.572L503.834,283.727ZM478.622,291.475C475.997,291.475 473.904,290.602 472.345,288.858C470.786,287.113 470.007,284.846 470.007,282.056C470.007,279.093 470.808,276.72 472.41,274.937C474.012,273.153 476.2,272.261 478.972,272.261C481.477,272.261 483.504,273.119 485.055,274.833C486.605,276.548 487.38,278.795 487.38,281.577C487.38,284.651 486.586,287.07 484.997,288.832C483.407,290.594 481.283,291.475 478.622,291.475ZM518.772,273.751L513.408,273.751L513.408,291.151L512.138,291.151L512.138,273.751L506.775,273.751L506.775,272.572L518.772,272.572L518.772,273.751ZM536.482,291.151L535.199,291.151L535.199,272.572L540.356,272.572C541.997,272.572 543.286,273.015 544.223,273.9C545.16,274.786 545.629,275.954 545.629,277.405C545.629,278.744 545.244,279.862 544.475,280.76C543.707,281.659 542.631,282.237 541.25,282.496L541.25,282.548C541.984,282.842 542.701,283.736 543.4,285.23L546.16,291.151L544.709,291.151L542.234,285.709C541.725,284.587 541.215,283.833 540.705,283.449C540.196,283.064 539.557,282.872 538.788,282.872L536.482,282.872L536.482,291.151ZM457.531,291.151L456.248,291.151L456.248,272.572L461.404,272.572C463.045,272.572 464.335,273.015 465.272,273.9C466.209,274.786 466.677,275.954 466.677,277.405C466.677,278.744 466.293,279.862 465.524,280.76C464.756,281.659 463.68,282.237 462.298,282.496L462.298,282.548C463.033,282.842 463.749,283.736 464.449,285.23L467.209,291.151L465.757,291.151L463.283,285.709C462.773,284.587 462.264,283.833 461.754,283.449C461.245,283.064 460.606,282.872 459.837,282.872L457.531,282.872L457.531,291.151ZM530.613,273.751L523.215,273.751L523.215,281.201L530.082,281.201L530.082,282.367L523.215,282.367L523.215,289.985L531.041,289.985L531.041,291.151L521.933,291.151L521.933,272.572L530.613,272.572L530.613,273.751ZM478.752,273.427C476.593,273.427 474.816,274.209 473.421,275.772C472.026,277.336 471.328,279.383 471.328,281.913C471.328,284.47 471.989,286.506 473.311,288.022C474.632,289.538 476.394,290.296 478.596,290.296C480.894,290.296 482.712,289.546 484.051,288.048C485.389,286.549 486.059,284.461 486.059,281.784C486.059,279.158 485.405,277.109 484.096,275.636C482.788,274.164 481.006,273.427 478.752,273.427ZM539.954,273.751L536.482,273.751L536.482,281.706L539.682,281.706C541.098,281.706 542.223,281.335 543.057,280.592C543.89,279.849 544.307,278.83 544.307,277.534C544.307,276.351 543.931,275.425 543.18,274.755C542.428,274.086 541.353,273.751 539.954,273.751ZM461.003,273.751L457.531,273.751L457.531,281.706L460.731,281.706C462.147,281.706 463.272,281.335 464.106,280.592C464.939,279.849 465.356,278.83 465.356,277.534C465.356,276.351 464.98,275.425 464.229,274.755C463.477,274.086 462.402,273.751 461.003,273.751ZM695.239,267.701L694.047,267.701L703.026,246.039L704.269,246.039L695.239,267.701ZM612.531,264.942C609.905,264.942 607.813,264.069 606.254,262.325C604.695,260.58 603.916,258.313 603.916,255.523C603.916,252.56 604.717,250.187 606.319,248.404C607.921,246.62 610.108,245.728 612.881,245.728C615.386,245.728 617.413,246.586 618.963,248.3C620.514,250.015 621.289,252.262 621.289,255.044C621.289,258.118 620.494,260.537 618.905,262.299C617.316,264.061 615.191,264.942 612.531,264.942ZM555.799,264.942C553.173,264.942 551.081,264.069 549.522,262.325C547.963,260.58 547.183,258.313 547.183,255.523C547.183,252.56 547.984,250.187 549.586,248.404C551.189,246.62 553.376,245.728 556.148,245.728C558.653,245.728 560.681,246.586 562.231,248.3C563.781,250.015 564.557,252.262 564.557,255.044C564.557,258.118 563.762,260.537 562.173,262.299C560.584,264.061 558.459,264.942 555.799,264.942ZM544.553,264.009C543.05,264.631 541.483,264.942 539.85,264.942C537.311,264.942 535.24,264.089 533.638,262.383C532.036,260.677 531.235,258.451 531.235,255.704C531.235,252.69 532.103,250.274 533.839,248.456C535.575,246.638 537.782,245.728 540.459,245.728C541.884,245.728 543.249,245.957 544.553,246.415L544.553,247.775C543.249,247.188 541.876,246.894 540.433,246.894C538.101,246.894 536.206,247.685 534.746,249.265C533.286,250.846 532.556,252.949 532.556,255.575C532.556,258.105 533.254,260.103 534.649,261.567C536.044,263.031 537.812,263.763 539.954,263.763C541.664,263.763 543.197,263.43 544.553,262.765L544.553,264.009ZM569.635,264.618L568.353,264.618L568.353,246.039L569.544,246.039L576.476,261.003C576.519,261.089 576.566,261.206 576.618,261.353C576.67,261.5 576.726,261.647 576.787,261.793C576.873,262.018 576.964,262.268 577.059,262.545L577.136,262.545L577.279,262.13C577.288,262.096 577.434,261.685 577.719,260.899L584.547,246.039L585.687,246.039L585.687,264.618L584.456,264.618L584.456,251.429C584.456,251.109 584.504,250.198 584.599,248.695L584.547,248.695C584.279,249.395 584.055,249.935 583.873,250.315L577.266,264.618L576.851,264.618L570.218,250.392C570.002,249.935 569.799,249.352 569.609,248.643L569.544,248.643C569.605,249.473 569.635,250.297 569.635,251.118L569.635,264.618ZM686.378,247.218L681.014,247.218L681.014,264.618L679.744,264.618L679.744,247.218L674.381,247.218L674.381,246.039L686.378,246.039L686.378,247.218ZM478.35,264.618L477.288,264.618L471.769,246.039L473.207,246.039L477.443,260.925C477.633,261.599 477.767,262.147 477.845,262.571L477.897,262.571C477.949,262.251 478.1,261.703 478.35,260.925L482.937,246.039L483.584,246.039L487.795,260.925C487.994,261.616 488.127,262.165 488.197,262.571L488.248,262.571C488.292,262.329 488.361,262.052 488.456,261.742L492.809,246.039L494.195,246.039L488.754,264.618L487.691,264.618L483.558,250.639C483.351,249.922 483.235,249.339 483.209,248.89L483.157,248.89C483.131,249.27 482.997,249.844 482.755,250.613L478.35,264.618ZM652.577,247.218L645.179,247.218L645.179,254.668L652.045,254.668L652.045,255.834L645.179,255.834L645.179,263.452L653.004,263.452L653.004,264.618L643.896,264.618L643.896,246.039L652.577,246.039L652.577,247.218ZM505.92,247.218L498.522,247.218L498.522,254.668L505.389,254.668L505.389,255.834L498.522,255.834L498.522,263.452L506.347,263.452L506.347,264.618L497.24,264.618L497.24,246.039L505.92,246.039L505.92,247.218ZM591.737,264.618L590.455,264.618L590.455,246.039L594.937,246.039C596.846,246.039 598.306,246.482 599.316,247.367C600.327,248.253 600.832,249.546 600.832,251.248C600.832,252.975 600.269,254.394 599.141,255.503C598.014,256.613 596.436,257.168 594.406,257.168L591.737,257.168L591.737,264.618ZM515.494,264.618L510.506,264.618L510.506,246.039L515.39,246.039C516.85,246.039 518.012,246.432 518.875,247.218C519.739,248.004 520.171,249.045 520.171,250.341C520.171,251.42 519.884,252.355 519.309,253.146C518.735,253.936 517.934,254.495 516.906,254.823L516.906,254.875C518.193,254.996 519.208,255.456 519.951,256.255C520.693,257.054 521.065,258.071 521.065,259.306C521.065,260.869 520.56,262.145 519.549,263.134C518.538,264.123 517.187,264.618 515.494,264.618ZM626.368,264.618L625.085,264.618L625.085,246.039L626.07,246.039L637.056,260.925C637.298,261.254 637.561,261.651 637.846,262.117L637.911,262.117C637.868,261.513 637.846,260.994 637.846,260.563L637.846,246.039L639.129,246.039L639.129,264.618L638.222,264.618L627.158,249.602C626.933,249.3 626.735,248.998 626.562,248.695L626.393,248.436L626.342,248.436C626.359,248.661 626.368,248.933 626.368,249.252L626.368,264.618ZM658.446,264.618L657.163,264.618L657.163,246.039L658.148,246.039L669.134,260.925C669.376,261.254 669.639,261.651 669.924,262.117L669.989,262.117C669.946,261.513 669.924,260.994 669.924,260.563L669.924,246.039L671.207,246.039L671.207,264.618L670.3,264.618L659.236,249.602C659.011,249.3 658.813,248.998 658.64,248.695L658.471,248.436L658.42,248.436C658.437,248.661 658.446,248.933 658.446,249.252L658.446,264.618ZM555.928,246.894C553.769,246.894 551.992,247.676 550.597,249.239C549.202,250.803 548.505,252.85 548.505,255.38C548.505,257.937 549.165,259.973 550.487,261.489C551.808,263.005 553.57,263.763 555.773,263.763C558.07,263.763 559.888,263.013 561.227,261.515C562.566,260.016 563.235,257.928 563.235,255.251C563.235,252.625 562.581,250.576 561.272,249.103C559.964,247.631 558.182,246.894 555.928,246.894ZM612.661,246.894C610.501,246.894 608.724,247.676 607.329,249.239C605.934,250.803 605.237,252.85 605.237,255.38C605.237,257.937 605.898,259.973 607.219,261.489C608.541,263.005 610.303,263.763 612.505,263.763C614.803,263.763 616.621,263.013 617.959,261.515C619.298,260.016 619.968,257.928 619.968,255.251C619.968,252.625 619.313,250.576 618.005,249.103C616.696,247.631 614.915,246.894 612.661,246.894ZM514.522,255.575L511.789,255.575L511.789,263.452L515.235,263.452C516.694,263.452 517.811,263.102 518.584,262.402C519.357,261.703 519.743,260.709 519.743,259.423C519.743,256.857 518.003,255.575 514.522,255.575ZM457.103,257.103L457.103,256.87L467.895,250.82L467.895,252.038L459.124,256.948L459.124,257L467.895,261.327L467.895,262.571L457.103,257.103ZM707.379,262.571L707.379,261.327L716.163,257L716.163,256.948L707.379,252.038L707.379,250.82L718.171,256.87L718.171,257.103L707.379,262.571ZM594.704,247.218L591.737,247.218L591.737,255.989L594.38,255.989C596.056,255.989 597.33,255.59 598.202,254.791C599.075,253.992 599.511,252.863 599.511,251.403C599.511,248.613 597.909,247.218 594.704,247.218ZM514.885,247.218L511.789,247.218L511.789,254.409L514.38,254.409C515.727,254.409 516.807,254.063 517.619,253.372C518.43,252.681 518.836,251.744 518.836,250.561C518.836,248.333 517.519,247.218 514.885,247.218ZM455.665,237.424L455.665,235.96C456.995,236.806 458.343,237.23 459.707,237.23C461.158,237.23 462.259,236.929 463.011,236.329C463.762,235.729 464.138,234.889 464.138,233.809C464.138,232.859 463.885,232.101 463.38,231.536C462.875,230.97 461.78,230.199 460.096,229.223C458.213,228.126 457.021,227.209 456.52,226.47C456.019,225.732 455.769,224.879 455.769,223.911C455.769,222.598 456.278,221.484 457.298,220.569C458.317,219.653 459.677,219.195 461.379,219.195C462.484,219.195 463.59,219.381 464.695,219.753L464.695,221.1C463.607,220.608 462.445,220.361 461.21,220.361C459.949,220.361 458.949,220.681 458.211,221.32C457.472,221.959 457.103,222.771 457.103,223.756C457.103,224.706 457.356,225.462 457.861,226.023C458.366,226.584 459.457,227.349 461.132,228.316C462.868,229.301 464.024,230.175 464.598,230.94C465.172,231.704 465.46,232.583 465.46,233.576C465.46,235.001 464.965,236.163 463.976,237.061C462.987,237.959 461.59,238.409 459.785,238.409C459.146,238.409 458.41,238.309 457.576,238.111C456.743,237.912 456.106,237.683 455.665,237.424ZM470.719,238.085L469.437,238.085L469.437,219.506L470.719,219.506L470.719,238.085ZM513.304,236.919L520.754,236.919L520.754,238.085L512.022,238.085L512.022,219.506L513.304,219.506L513.304,236.919ZM532.854,220.685L525.457,220.685L525.457,228.135L532.323,228.135L532.323,229.301L525.457,229.301L525.457,236.919L533.282,236.919L533.282,238.085L524.174,238.085L524.174,219.506L532.854,219.506L532.854,220.685ZM498.872,238.085L497.589,238.085L497.589,219.506L502.072,219.506C503.981,219.506 505.44,219.949 506.451,220.834C507.461,221.72 507.967,223.013 507.967,224.715C507.967,226.442 507.403,227.861 506.276,228.97C505.149,230.08 503.57,230.635 501.541,230.635L498.872,230.635L498.872,238.085ZM476.77,238.085L475.487,238.085L475.487,219.506L476.679,219.506L483.61,234.47C483.653,234.556 483.701,234.673 483.753,234.82C483.805,234.967 483.861,235.114 483.921,235.26C484.008,235.485 484.098,235.735 484.193,236.012L484.271,236.012L484.414,235.597C484.422,235.563 484.569,235.152 484.854,234.366L491.682,219.506L492.822,219.506L492.822,238.085L491.591,238.085L491.591,224.896C491.591,224.576 491.638,223.665 491.733,222.162L491.682,222.162C491.414,222.862 491.189,223.402 491.008,223.782L484.401,238.085L483.986,238.085L477.353,223.859C477.137,223.402 476.934,222.819 476.744,222.11L476.679,222.11C476.739,222.94 476.77,223.764 476.77,224.585L476.77,238.085ZM501.839,220.685L498.872,220.685L498.872,229.456L501.515,229.456C503.19,229.456 504.464,229.057 505.337,228.258C506.209,227.459 506.645,226.33 506.645,224.87C506.645,222.08 505.043,220.685 501.839,220.685Z"/>
        </g>
    </g>
</svg>
